<svg id="Layer_1" data-name="Layer 1" xmlns="http://www.w3.org/2000/svg" viewBox="0 0 586.72 592.35"><defs><style>.cls-1{fill:#f3ecde;}.cls-2{fill:#e8dcc7;}.cls-3{fill:#3c2415;}.cls-4{fill:#a44c24;}.cls-5{fill:#763411;}.cls-6{fill:#624230;}.cls-7{fill:#4f3323;}.cls-8{fill:#eee9da;}.cls-9{fill:#e3d8bc;}.cls-10{fill:#d1bb9e;}.cls-11{fill:#9d7a72;}.cls-12{fill:#c8b5b1;}</style></defs><polygon class="cls-1" points="0 106.77 0 443.72 302.43 592.35 301.45 235.75 0 106.77"/><polygon class="cls-2" points="586.67 106.77 301.45 235.75 302.43 592.35 586.67 441.6 586.67 106.77"/><polygon class="cls-3" points="301.45 0 586.67 106.77 301.45 235.75 0 106.77 301.45 0"/><polygon class="cls-4" points="0 443.72 302.43 592.35 301.45 536.76 0 391.48 0 443.72"/><polygon class="cls-5" points="586.67 441.6 302.43 592.35 301.45 536.76 586.72 391.48 586.67 441.6"/><polygon class="cls-6" points="0 106.77 0 127.06 301.45 253.75 301.45 235.75 0 106.77"/><polygon class="cls-7" points="586.67 106.77 586.72 127.06 301.45 253.75 301.45 235.75 586.67 106.77"/><polygon class="cls-4" points="0 127.06 301.45 253.75 301.45 328.99 0 198.04 0 127.06"/><polygon class="cls-5" points="586.72 127.06 301.45 253.75 301.45 328.99 586.68 195.25 586.72 127.06"/><path class="cls-8" d="M415.17,108.78c-3.74.87,8,4.52,7.55,10.62-.18,2.5.84,5.08,1.32,7.63-4.5-7.81-8.29-3.68-15.39-2.8-15.76,1.94-32.62-5.1-49-8.42-2.4-.49-4.87-.67-7.3-1,.74,2.24.86,5.07,2.33,6.64,14.27,15.14,36.44,8.93,52.59,19.19,2.64-8.19,16.9-2.12,16.79-13.67,9.49.42,9.34,11.45,16.22,14.73l-2.33,2.19c-7.84.89-15.09-.28-22.94,5.59-29,21.7-42.82-17.23-66.6-18.39-2.37-.12-4.63-2.43-6.94-3.73-.91,2.43-2.18,4.79-2.68,7.3-1.31,6.72-3.25,14.91-10.75,14.34-6.07-.46-3.5-8.29-3.39-13.3.07-3-.82-6.07-1.28-9.11-2.66,3.17-5.19,6.47-8,9.48-9.06,9.65-18.11,19.33-27.46,28.7-2.1,2.11-5.41,3-8.16,4.5,2.91,2.34,5.61,5,8.78,7,5.08,3.08,17.23,3.8,6.86,12.65-5.61,4.8,2.49,18.93-9.29,14.79-6.23-2.19-13.07-5.33-19.52-8.27a2.78,2.78,0,0,1-.4-.81l-.75-1.09-.08-1.19.12-2.87-.81-2.07c1-3.7.73-8.89,3.14-10.87,10.16-8.36-9.74-21.11,4.91-28.58,8.58-4.37,16.4-10.14,14.52-21.87l2.91-8.9,27.85-10.91c9.36.25,14.13,0,21.14-5-2-.31,7.09-8.86,29.23-6.27" transform="translate(-56.64 -53.83)"/><path class="cls-9" d="M267.32,199.33l-.81-3.93c6.46,2.94,13.3,6.08,19.53,8.27,11.78,4.14,3.68-10,9.29-14.79,10.37-8.85-1.78-9.57-6.86-12.65-3.17-1.93-5.87-4.62-8.78-7,2.75-1.47,6.06-2.39,8.16-4.5,9.35-9.37,18.4-19.05,27.46-28.7,2.82-3,5.35-6.31,8-9.48.46,3,1.35,6.08,1.28,9.11-.11,5-2.68,12.84,3.39,13.3,7.5.57,9.44-7.62,10.75-14.34.5-2.51,1.77-4.87,2.68-7.3,2.31,1.3,4.57,3.61,6.94,3.73,23.78,1.16,37.58,40.09,66.6,18.39,7.85-5.87,15.1-4.7,22.94-5.59,0,9.24,15,4.64,13.63,14-1.1,7.72-4.4,15.14-6.72,22.7-5.32-9.61-11.89-14.35-21.78-5.43-1,.94-1.55,2.48-2.3,3.74,1.16-.16,2.58.05,3.45-.55,5.22-3.56,6.38,2,8.81,4.06,1.24,1.06,2.11,4.93,1.75,5.14A112.8,112.8,0,0,1,420,194.88c-.32.13-2.46-3.67-3.41-5.8-.51-1.15-.29-2.63-.4-4-1.18.78-2.82,1.29-3.45,2.38-2.73,4.76-6.13,4.68-10.15,1.89l-2.43-3.78c-2-6,1.18-9.84,4.57-14.47,3.08-4.21,3.84-10.12,5.62-15.28-10.55,6.8-28.82.16-32.34,19.88-1.47,8.24-5.9,21.36-11,22.39-9.14,1.85-21.33.35-28.49-9.87-.87-1.24-3.55-1.22-5.38-1.79,1.09,2.07,1.88,4.37,3.33,6.15,5.49,6.77,16,13.6,15.68,20-.45,9.44-12.28,4.88-19.43,5.72-8.87-.05-14.3-2.27-8.4-12.44,3-5.18,1.41-9-4.33-10.94l-.15-1.5c1-3.48,3.89-8.33,2.57-10.23-7.38-10.62-10.22-20.08-.73-31.51,2.54-3.07-.3-10.59-.67-16.06-1,.34-2.23.41-2.83,1.07q-12.63,14.18-25.1,28.5c-3.81,4.36-5.29,8.29,2,10.63,11.8,3.76,18.44,8.58,5.61,19.89-3,2.62-3,8.59-4.38,13l-1.43,3.42C282.91,213.87,276.1,204.47,267.32,199.33Zm60.4-30c2.34,13.72,19.6,16.4,31,24.81,7.52,5.57,11.06,2,9.12-7.3-.5-2.4,1.83-5.5,3.15-8.13,1.5-3,7.83-5.78,2.78-9.05-9.12-5.92-19.28-10.23-29-15.22C341.29,161.58,327.23,151.56,327.72,169.37Zm97.92-23.86-5.4,4.55,11.88,9.4c1.51-2.46,4.25-4.91,4.28-7.4C436.47,146.75,431.89,146.1,425.64,145.51Z" transform="translate(-56.64 -53.83)"/><path class="cls-9" d="M424,127c.11,11.55-14.15,5.48-16.79,13.67-16.15-10.26-38.32-4-52.59-19.19-1.47-1.57-1.59-4.4-2.33-6.64,2.43.33,4.9.51,7.3,1,16.43,3.32,33.29,10.36,49,8.42,7.1-.88,10.89-5,15.39,2.8Z" transform="translate(-56.64 -53.83)"/><path class="cls-9" d="M265.41,189.44l-.81-2.06Z" transform="translate(-56.64 -53.83)"/><path class="cls-9" d="M266.12,194.59l-.75-1.09Z" transform="translate(-56.64 -53.83)"/><path class="cls-10" d="M332.69,218.31c7.15-.84,19,3.72,19.43-5.72.31-6.37-10.19-13.2-15.68-20-1.45-1.78-2.24-4.08-3.33-6.15,1.83.57,4.51.55,5.38,1.79,7.16,10.22,19.35,11.72,28.49,9.87,5.09-1,9.52-14.15,11-22.39,3.52-19.72,21.79-13.08,32.34-19.88-1.78,5.16-2.54,11.07-5.62,15.28-3.39,4.63-6.56,8.49-4.57,14.47-11.94-10.39-16.48-3.64-18.85,8.13-.38,3.57-.77,7.14-1.15,10.71l-5.45-2.13L378.42,218c-13.49-7.7-22.46,9-35,6.49C338.91,224.08,332,227.76,332.69,218.31Z" transform="translate(-56.64 -53.83)"/><path class="cls-10" d="M402.55,189.39c4,2.79,7.42,2.87,10.15-1.89.63-1.09,2.27-1.6,3.45-2.38.11,1.33-.11,2.81.4,4,.95,2.13,3.09,5.93,3.41,5.8a112.8,112.8,0,0,0,14.78-7.32c.36-.21-.51-4.08-1.75-5.14-2.43-2.06-3.59-7.62-8.81-4.06-.87.6-2.29.39-3.45.55.75-1.26,1.26-2.8,2.3-3.74,9.89-8.92,16.46-4.18,21.78,5.43l2,5.7c-9.87.79-14,5.42-10.18,15.3,2.53,3.35-.35,4.9-12.11,6.54,1.31-9.47-10.45-2.6-11.56-9.16,0-.14-2-.26-2.06,0-2.88,7.21-7.67,2-11.66,1.86Z" transform="translate(-56.64 -53.83)"/><path class="cls-11" d="M402.55,189.39l-3.33,11.43c4,.16,8.78,5.35,11.66-1.86.1-.24,2-.12,2.06,0,1.11,6.56,12.87-.31,11.56,9.16-15.21,3-33,12.75-34.22-16.07-.27-6-5.77,1.33-9,1.67,2.37-11.77,6.91-18.52,18.85-8.13Z" transform="translate(-56.64 -53.83)"/><path class="cls-11" d="M343.44,224.53c12.52,2.49,21.49-14.19,35-6.49.71.93,1.43,1.85,2.14,2.77C367.91,219.27,356.44,229.54,343.44,224.53Z" transform="translate(-56.64 -53.83)"/><path class="cls-12" d="M380.56,220.81c-.71-.92-1.43-1.84-2.14-2.77l-3.75-15.72,5.45,2.13" transform="translate(-56.64 -53.83)"/><path class="cls-11" d="M319.81,193.43l.15,1.5c-12.18.18-15.91,12.65-25.07,17.22.48-1.14.95-2.28,1.42-3.42C303.08,202,307,191,319.81,193.43Z" transform="translate(-56.64 -53.83)"/><path class="cls-8" d="M327.72,169.37c-.49-17.81,13.57-7.79,17-14.89,9.73,5,19.89,9.3,29,15.22,5.05,3.27-1.28,6.08-2.78,9.05-1.32,2.63-3.65,5.73-3.15,8.13,1.94,9.34-1.6,12.87-9.12,7.3C347.32,185.77,330.06,183.09,327.72,169.37Z" transform="translate(-56.64 -53.83)"/><path class="cls-10" d="M319.81,193.43C307,191,303.08,202,296.31,208.73c1.39-4.42,1.42-10.39,4.39-13,12.83-11.31,6.19-16.13-5.61-19.89-7.33-2.34-5.85-6.27-2-10.63q12.51-14.3,25.1-28.5c.6-.66,1.87-.73,2.83-1.07.37,5.47,3.21,13,.67,16.06-9.49,11.43-6.65,20.89.73,31.51C323.7,185.1,320.77,190,319.81,193.43Z" transform="translate(-56.64 -53.83)"/><path class="cls-10" d="M425.64,145.51c6.25.59,10.83,1.24,10.76,6.55,0,2.49-2.77,4.94-4.28,7.4l-11.88-9.4Z" transform="translate(-56.64 -53.83)"/><path class="cls-4" d="M273.6,437.17v84.24c0,6.2.14,13.32.57,18.29L263,534.08l-.56-12.38-.29-.14c-3.83,5.86-12.06,7.64-23.28,2-16.61-8.32-29.52-29-29.52-50.21-.15-23.4,14.19-30.33,30.8-22,10.65,5.33,17.74,13.92,20.72,20.89l.29.14V430.92Zm-12.49,54.66a27.53,27.53,0,0,0-.57-5.76c-1.84-8.84-8.66-18.88-18-23.57C229.6,456,221.93,463.72,221.93,479c0,14.26,7,29.4,20.3,36.08,8.37,4.2,16,2.28,18.31-6.09a17.14,17.14,0,0,0,.57-5Z" transform="translate(-56.64 -53.83)"/><path class="cls-4" d="M301.42,520.8c.29,17.14,10.94,29.52,23.43,35.78,8.94,4.48,14.48,5.66,19,5.92l2.27,10.21c-4.4-.18-12.06-1.57-23-7.05-21-10.52-33.78-31.17-33.78-52,0-21,12.35-31.4,32.36-21.38,22.43,11.23,28.25,34.16,28.25,47a28.27,28.27,0,0,1-.42,5.69Zm36.49,9.2c.14-8-3.27-22.23-17.18-29.19-12.78-6.4-18.17,2.7-19.16,11Z" transform="translate(-56.64 -53.83)"/><path class="cls-5" d="M371.24,558.76a33.23,33.23,0,0,0,16.85-3.42c9.07-4.48,13.39-11.08,13.39-17s-3.6-7.43-12.81-6.34c-12.67,1.65-18.58-2.34-18.58-10.55,0-11.23,9.22-25,24.05-32.32,7.06-3.49,13.25-4.68,17-4.08l-3,10.57a26.55,26.55,0,0,0-14.26,3c-7.49,3.7-11.52,10-11.52,15.19,0,5.76,4,6.36,13.11,5.48,11.95-1.44,18.28,1.48,18.28,11.85,0,12.38-9.64,25.79-25.92,33.82-7.63,3.77-14.68,5.24-19.58,4.78Z" transform="translate(-56.64 -53.83)"/><path class="cls-5" d="M437.19,506.61c.29,16.84,11.09,18.57,23.76,12.31a76.36,76.36,0,0,0,19.3-13.13l2.3,7.93a96.43,96.43,0,0,1-23.32,16C437.92,540.23,425,532.38,425,511.5s12.52-43.77,32.83-53.8c22.75-11.24,28.65,5.86,28.65,18.68a34.28,34.28,0,0,1-.43,6.11Zm37-27.36c.15-8.13-3.31-18.95-17.42-12-13,6.4-18.43,20.91-19.44,30.19Z" transform="translate(-56.64 -53.83)"/><path class="cls-5" d="M502.14,459.12c0-8.21-.15-15.19-.58-21.46l11.09-5.47.58,13.39.43-.21c3.17-10.93,10.94-20.67,19.44-24.87a32.89,32.89,0,0,1,3.45-1.42V431c-1.29.5-2.59,1-4.32,1.85-8.92,4.41-15.26,14.31-17,24.52a43.32,43.32,0,0,0-.43,6.12v37.29l-12.67,6.26Z" transform="translate(-56.64 -53.83)"/></svg>